<svg width="22" height="25" viewBox="0 0 22 25" fill="none" xmlns="http://www.w3.org/2000/svg">
<path fill-rule="evenodd" clip-rule="evenodd" d="M15.1459 4.35282C18.2144 7.4213 18.2144 12.3963 15.1459 15.4648C12.0775 18.5333 7.10245 18.5333 4.03397 15.4648C0.965481 12.3963 0.965481 7.4213 4.03397 4.35282C7.10245 1.28433 12.0775 1.28433 15.1459 4.35282ZM16.2571 3.24162C19.9393 6.9238 19.9393 12.8938 16.2571 16.576C12.575 20.2582 6.60495 20.2582 2.92277 16.576C-0.759413 12.8938 -0.759413 6.9238 2.92277 3.24162C6.60495 -0.440565 12.575 -0.440565 16.2571 3.24162ZM15.9523 17.8605C15.6455 17.5537 15.148 17.5537 14.8411 17.8605C14.5343 18.1674 14.5343 18.6649 14.8411 18.9717L20.1193 24.2499C20.4262 24.5567 20.9237 24.5567 21.2305 24.2499C21.5374 23.943 21.5374 23.4455 21.2305 23.1387L15.9523 17.8605Z" fill="#00A14B"/>
</svg>
